# xmcd
#
# Track frame offsets: 
#        182
#        22845
#        38875
#        60555
#        83167
#        97715
#        119025
#        139720
#        158642
#        169962
#        187902
#        211810
#        236265
#        254905
#
# Disc length: 3569 seconds
#
# Revision: 5
# Processed by: cddbd v1.5.2PL0 Copyright (c) Steve Scherf et al.
# Submitted via: ExactAudioCopy v1.3
#
DISCID=b10def0e
DTITLE=Jean-Jacques Milteau - Memphis
DYEAR=2001
DGENRE=Jazz/Blues
TTITLE0=T.M.C.P.
TTITLE1=Heart Of Gold With Mighty Mo Rodgers
TTITLE2=Bon Ton Cafe
TTITLE3=The Change Has Yet To Come With Mighty Sam Mc Clain
TTITLE4=Memphis
TTITLE5=If You Love Somebody Set Them Free With Little Milton
TTITLE6=Junior Parker
TTITLE7=City Of Angels(To The City of Lights) With Mighty Mo Rodgers
TTITLE8=Royal Shuffle
TTITLE9=Master Lester
TTITLE10=Things Are Gonna Change With Little Milton
TTITLE11=Poppa Willie
TTITLE12=At Last, On Time With Mighty Sam Mc Clain
TTITLE13=The Feeling Is Real With William C. Brown III
EXTD=YEAR: 2001
EXTT0=
EXTT1=
EXTT2=
EXTT3=
EXTT4=
EXTT5=
EXTT6=
EXTT7=
EXTT8=
EXTT9=
EXTT10=
EXTT11=
EXTT12=
EXTT13=
PLAYORDER=
